<svg width="100" height="100" viewBox="0 0 100 100" fill="none" xmlns="http://www.w3.org/2000/svg">
<path d="M50 8.33333C27.025 8.33333 8.33334 27.025 8.33334 50V67.2625C8.33334 71.5292 12.0708 75 16.6667 75H20.8333C21.9384 75 22.9982 74.561 23.7796 73.7796C24.561 72.9982 25 71.9384 25 70.8333V49.4042C25 48.2991 24.561 47.2393 23.7796 46.4579C22.9982 45.6765 21.9384 45.2375 20.8333 45.2375H17.05C19.3667 29.1125 33.2417 16.6667 50 16.6667C66.7583 16.6667 80.6334 29.1125 82.95 45.2375H79.1667C78.0616 45.2375 77.0018 45.6765 76.2204 46.4579C75.439 47.2393 75 48.2991 75 49.4042V75C75 79.5958 71.2625 83.3333 66.6667 83.3333H58.3333V79.1667H41.6667V91.6667H66.6667C75.8583 91.6667 83.3333 84.1917 83.3333 75C87.9292 75 91.6667 71.5292 91.6667 67.2625V50C91.6667 27.025 72.975 8.33333 50 8.33333Z" fill="#5F9EA0"/>
</svg>
